<svg xmlns="http://www.w3.org/2000/svg" width="15" height="15"><path d="M13 4V2.49a.5.5 0 0 0-.5-.49.51.51 0 0 0-.5.55V5a1 1 0 0 0 1 1v5.5a.5.5 0 0 1-1 0v-2A1.5 1.5 0 0 0 10.5 8H9V2a1 1 0 0 0-1-1H2a1 1 0 0 0-1 1v11a1 1 0 0 0 1 1h6a1 1 0 0 0 1-1V9h1.5a.5.5 0 0 1 .5.5v2a1.5 1.5 0 0 0 3 0V5a1 1 0 0 0-1-1zM7.2 7.4l-2.6 3.467-.017-.007c-.046.078-.116.14-.214.14a.267.267 0 0 1-.267-.267c0-.028.021-.047.03-.072l-.018-.008.776-2.324A.25.25 0 0 0 4.653 8H3a.25.25 0 0 1-.2-.4l2.6-3.467.017.007c.046-.078.116-.14.214-.14.148 0 .267.12.267.267 0 .028-.021.046-.03.072l.018.008L5.11 6.67a.25.25 0 0 0 .237.33H7a.25.25 0 0 1 .2.4z"/></svg>