<svg xmlns="http://www.w3.org/2000/svg" width="15" height="15"><path d="M10.651 7.121a.251.251 0 0 0-.314 0L8.092 8.929A.247.247 0 0 0 8 9.122v4.625a.253.253 0 0 0 .253.253h1.494a.253.253 0 0 0 .253-.253V12h1v1.747a.253.253 0 0 0 .253.253h1.494a.253.253 0 0 0 .253-.253V9.12a.25.25 0 0 0-.094-.2zM10 11H9v-1h1zm2 0h-1v-1h1zM5.71 1.815a.252.252 0 0 0-.42 0L2.042 5.936a.252.252 0 0 0-.042.14v7.671a.252.252 0 0 0 .251.253h2.5A.252.252 0 0 0 5 13.748V12h1v1.748a.252.252 0 0 0 .252.252H7V8a.5.5 0 0 1 .188-.391L9 6c0-.05-3.29-4.185-3.29-4.185zM4 10H3V9h1zm0-3H3V6h1zm2 3H5V9h1zm0-3H5V6h1z"/></svg>